<svg width="24" height="25" viewBox="0 0 24 25" fill="none" xmlns="http://www.w3.org/2000/svg"><g clip-path="url(#clip0_1401_9301)"><rect y=".5" width="24" height="24" rx="12" fill="#F3F4F6"/><path d="M24 21.494V24.501H0V21.505C1.39595 19.6395 3.20791 18.1253 5.29179 17.0831C7.37567 16.0408 9.67399 15.4991 12.004 15.501C16.908 15.501 21.264 17.855 24 21.494ZM16.002 9.5C16.002 10.5609 15.5806 11.5783 14.8304 12.3284C14.0803 13.0786 13.0629 13.5 12.002 13.5C10.9411 13.5 9.92372 13.0786 9.17357 12.3284C8.42343 11.5783 8.002 10.5609 8.002 9.5C8.002 8.43913 8.42343 7.42172 9.17357 6.67157C9.92372 5.92143 10.9411 5.5 12.002 5.5C13.0629 5.5 14.0803 5.92143 14.8304 6.67157C15.5806 7.42172 16.002 8.43913 16.002 9.5Z" fill="#D1D5DB"/></g><defs><clipPath id="clip0_1401_9301"><rect y=".5" width="24" height="24" rx="12" fill="#fff"/></clipPath></defs></svg>