<svg width="163" height="182" viewBox="0 0 163 182" fill="none" xmlns="http://www.w3.org/2000/svg"><path id="Vector" d="M162.633 116.397C162.633 152.626 133.273 181.999 97.0601 181.999C74.4074 181.999 54.4337 170.497 42.6435 152.999H0.0492385V116.315H18.0414V38.9824H0L23.4978 0.397461H72.5223V51.3139V52.2076V55.5544C80.106 52.4841 88.3881 50.7941 97.0591 50.7941C133.271 50.7941 162.632 80.1671 162.632 116.398L162.633 116.397ZM40.5986 149.751C34.8176 139.987 31.5056 128.581 31.5056 116.397C31.5056 90.11 46.9645 67.4295 69.2766 56.9669V52.2066V51.3129V3.64571H25.3347L5.78301 35.7321H21.2911V119.563H3.29898V149.749H40.5996L40.5986 149.751ZM45.1296 153H90.6631V116.316H72.5243V55.5544C71.4199 55.9937 70.3487 56.4642 69.2766 56.9679V119.565H87.4154V149.751H45.1296V153Z" fill="#A70532"/></svg>