<svg width="184" height="185" viewBox="0 0 184 185" fill="none" xmlns="http://www.w3.org/2000/svg"><path id="Vector" d="M183.503 119.198C183.503 155.427 154.144 184.8 117.93 184.8C84.0202 184.8 56.12 159.041 52.7105 126.016H74.9965V150.772C74.9965 151.669 75.724 152.397 76.6204 152.397H118.552C119.449 152.397 120.176 151.669 120.176 150.772V126.016H136.491C137.388 126.016 138.115 125.288 138.115 124.391V89.7925C138.115 88.8958 137.388 88.1679 136.491 88.1679H120.176V53.6375C155.349 54.8228 183.503 83.7213 183.503 119.198ZM74.9965 65.3085V50.2817L47.7907 88.1679H56.5642H60.1526C63.9359 81.1004 68.9864 74.8301 74.9945 69.6305V65.3085H74.9955H74.9965ZM59.3155 89.7644V91.4172H78.2432V68.2531H76.6204C76.0717 68.7025 75.5321 69.16 74.9955 69.6305V88.1679H60.1536C59.8632 88.6927 59.5838 89.2265 59.3155 89.7654V89.7644ZM58.5297 91.4172H44.6324V91.4111C44.3048 91.4111 43.9732 91.3126 43.6878 91.1065C42.9633 90.5847 42.7985 89.5724 43.3201 88.8475L75.2256 44.4155C75.5089 43.94 76.0285 43.6213 76.6213 43.6213C77.5177 43.6213 78.2452 44.3492 78.2452 45.2459V66.9653C89.0084 58.7698 102.393 53.8215 116.93 53.6033V89.7925C116.93 90.6893 117.657 91.4172 118.553 91.4172H134.868V122.767H118.553C117.657 122.767 116.93 123.495 116.93 124.391V149.148H78.2452V124.391C78.2452 123.495 77.5177 122.767 76.6213 122.767H52.4573C52.393 121.585 52.3598 120.395 52.3598 119.198C52.3598 109.271 54.5675 99.849 58.5307 91.4172H58.5297ZM52.3639 126.016H5.0778C4.20356 126.016 3.49112 125.324 3.45495 124.459L0.00925429 92.9905C-0.0349599 92.5763 0.0816028 92.1812 0.308703 91.8686L65.7989 1.47848C66.1154 1.04116 66.6109 0.807919 67.1123 0.807919L118.554 0.805908C119.451 0.805908 120.178 1.53377 120.178 2.43054V53.5983H118.112H117.495H116.93V4.05617H67.9373L3.29921 93.268L6.52985 122.768H52.3648V126.017L52.3639 126.016Z" fill="#A70532"/></svg>