<svg width="68" height="68" viewBox="0 0 68 68" fill="none" xmlns="http://www.w3.org/2000/svg"><g id="heroicons-outline/gift"><path id="Vector" d="M59.4998 31.875V55.25C59.4998 57.5972 57.597 59.5 55.2498 59.5H14.8748C12.5275 59.5 10.6248 57.5972 10.6248 55.25V31.875M33.9998 13.8125C33.9998 9.70488 30.6699 6.375 26.5623 6.375C22.4546 6.375 19.1248 9.70488 19.1248 13.8125C19.1248 17.9201 22.4546 21.25 26.5623 21.25C28.6434 21.25 33.9998 21.25 33.9998 21.25M33.9998 13.8125C33.9998 15.839 33.9998 21.25 33.9998 21.25M33.9998 13.8125C33.9998 9.70488 37.3296 6.375 41.4373 6.375C45.5449 6.375 48.8748 9.70488 48.8748 13.8125C48.8748 17.9201 45.5449 21.25 41.4373 21.25C39.3561 21.25 33.9998 21.25 33.9998 21.25M33.9998 21.25V59.5M9.56226 31.875H60.5623C62.3227 31.875 63.7498 30.4479 63.7498 28.6875V24.4375C63.7498 22.6771 62.3227 21.25 60.5623 21.25H9.56226C7.80185 21.25 6.37476 22.6771 6.37476 24.4375V28.6875C6.37476 30.4479 7.80185 31.875 9.56226 31.875Z" stroke="#223341" stroke-width="3" stroke-linecap="round" stroke-linejoin="round"/></g></svg>