<svg width="194" height="187" viewBox="0 0 194 187" fill="none" xmlns="http://www.w3.org/2000/svg"><path id="Vector" d="M193.778 121.198C193.778 157.427 164.417 186.8 128.205 186.8C105.178 186.8 84.9293 174.924 73.2367 156.94C70.7848 157.118 68.2516 157.215 65.7183 157.215C31.7789 157.215 11.7891 143.519 0.990785 132.049L0 130.994L25.592 100.678L26.842 101.848C36.6334 111.06 49.7218 116.404 62.8102 116.535C63.2815 109.841 64.7597 103.424 67.0809 97.4456C65.1978 97.332 63.0534 97.2837 60.7643 97.3159L41.1805 97.5431V59.2507H60.5212C65.1003 59.2507 79.0007 59.2507 79.0007 50.4942C79.0007 44.3365 72.262 40.6489 60.9593 40.6489C50.1921 40.6489 39.9465 45.3277 29.6506 54.9297L28.4327 56.0507L3.24673 28.0259L4.1883 26.9371C19.9396 8.80577 39.9947 0 65.4892 0C101.117 0 125.053 17.0747 125.053 42.4846C125.053 47.1957 124.192 51.6966 122.487 55.8547C124.37 55.6757 126.271 55.5953 128.203 55.5953C164.415 55.5953 193.776 84.9683 193.776 121.199L193.778 121.198ZM71.3054 153.804C65.7997 144.202 62.6494 133.074 62.6494 121.198C62.6494 120.726 62.6495 120.255 62.6655 119.784C49.3661 119.622 36.0828 114.407 25.8844 105.374L4.35209 130.864C14.9394 141.635 33.9715 153.967 65.7183 153.967C67.6014 153.967 69.4695 153.917 71.3044 153.804H71.3054ZM63.3317 119.8C79.3594 119.8 85.059 112.928 85.059 106.495C85.059 99.1195 80.1462 95.3374 69.1519 94.3401L67.716 95.8702L67.6024 97.4787C67.4859 97.4677 67.3603 97.4637 67.2337 97.4566C80.2155 98.3735 81.8112 102.612 81.8112 106.496C81.8112 112.702 74.731 116.552 63.3317 116.552V119.801V119.8ZM69.1268 94.337C68.8917 94.3159 68.6545 94.2958 68.4144 94.2767C77.4401 74.2132 96.2612 59.5171 118.775 56.2679C114.646 64.966 106.472 71.4947 95.7307 74.6646L89.7999 76.4149L95.8261 77.8063C109.952 81.0666 125.043 91.3381 125.043 110.389C125.043 134.042 105.112 151.005 74.2687 153.607L74.541 156.845C107.193 154.091 128.29 135.857 128.29 110.39C128.29 94.4054 118.181 81.6064 101.56 76.0479C110.864 72.1834 117.954 65.712 121.804 57.4632L119.16 56.2136L118.868 56.0839C120.816 51.9087 121.807 47.3274 121.807 42.4856C121.807 18.6521 99.7059 3.25026 65.4912 3.25026C41.5071 3.25026 22.5392 11.3412 7.58473 27.9937L28.6457 51.4372C39.1848 41.9981 49.756 37.4006 60.9613 37.4006C74.2929 37.4006 82.2504 42.2906 82.2504 50.4952C82.2504 58.4555 74.943 62.501 60.5231 62.501H44.4302V94.2626L60.7342 94.0676C63.0343 94.0385 66.2429 94.1611 68.4083 94.2928L69.1268 94.3391V94.337ZM119.16 56.2116L121.091 57.1244L119.142 56.2136L119.16 56.2105V56.2116Z" fill="#A70532"/></svg>