<svg width="68" height="68" viewBox="0 0 68 68" fill="none" xmlns="http://www.w3.org/2000/svg"><g id="heroicons-outline/academic-cap"><path id="Vector" d="M12.0681 28.7488C11.2962 34.6536 10.8273 40.6536 10.6775 46.7329C18.8828 50.1586 26.687 54.3533 34 59.2268C41.313 54.3533 49.1172 50.1586 57.3225 46.7329C57.1727 40.6537 56.7038 34.6537 55.9319 28.7489M12.0681 28.7488C9.58692 27.9148 7.07567 27.1464 4.53638 26.4455C13.7316 20.0001 23.5943 14.4421 34.0001 9.89557C44.4059 14.4421 54.2686 20.0001 63.4639 26.4455C60.9245 27.1464 58.4132 27.9149 55.9319 28.7489M12.0681 28.7488C19.6819 31.308 27.0124 34.4842 34.0001 38.2178C40.9878 34.4842 48.3182 31.3081 55.9319 28.7489M19.125 42.5C20.2986 42.5 21.25 41.5486 21.25 40.375C21.25 39.2014 20.2986 38.25 19.125 38.25C17.9514 38.25 17 39.2014 17 40.375C17 41.5486 17.9514 42.5 19.125 42.5ZM19.125 42.5V32.086C23.9175 29.1082 28.8819 26.381 34 23.9227M14.1458 56.6458C17.4653 53.3263 19.125 48.9757 19.125 44.625V40.375" stroke="#223341" stroke-width="3" stroke-linecap="round" stroke-linejoin="round"/></g></svg>