<svg width="68" height="68" viewBox="0 0 68 68" fill="none" xmlns="http://www.w3.org/2000/svg"><g id="heroicons-outline/user-group"><path id="Vector" d="M50.9997 53.0376C51.701 53.0955 52.4103 53.125 53.1265 53.125C56.0968 53.125 58.9484 52.6172 61.5994 51.6836C61.6174 51.4581 61.6265 51.2301 61.6265 51C61.6265 46.3056 57.8209 42.5 53.1265 42.5C51.3482 42.5 49.6975 43.0461 48.3329 43.9797M50.9997 53.0376C50.9998 53.0667 50.9999 53.0958 50.9999 53.125C50.9999 53.7625 50.9648 54.3917 50.8964 55.011C45.9189 57.867 40.1501 59.5 33.9999 59.5C27.8496 59.5 22.0808 57.867 17.1033 55.011C17.035 54.3917 16.9999 53.7625 16.9999 53.125C16.9999 53.0959 17 53.0669 17.0001 53.0379M50.9997 53.0376C50.9829 49.704 50.0066 46.5973 48.3329 43.9797M48.3329 43.9797C45.3128 39.2563 40.022 36.125 33.9999 36.125C27.9785 36.125 22.6882 39.2556 19.668 43.9779M19.668 43.9779C18.3039 43.0454 16.6541 42.5 14.877 42.5C10.1825 42.5 6.37695 46.3056 6.37695 51C6.37695 51.2301 6.3861 51.4581 6.40404 51.6836C9.055 52.6172 11.9067 53.125 14.877 53.125C15.5919 53.125 16.3 53.0956 17.0001 53.0379M19.668 43.9779C17.9935 46.596 17.0168 49.7034 17.0001 53.0379M42.4999 19.125C42.4999 23.8194 38.6943 27.625 33.9999 27.625C29.3055 27.625 25.4999 23.8194 25.4999 19.125C25.4999 14.4306 29.3055 10.625 33.9999 10.625C38.6943 10.625 42.4999 14.4306 42.4999 19.125ZM59.4999 27.625C59.4999 31.1458 56.6457 34 53.1249 34C49.6041 34 46.7499 31.1458 46.7499 27.625C46.7499 24.1042 49.6041 21.25 53.1249 21.25C56.6457 21.25 59.4999 24.1042 59.4999 27.625ZM21.2499 27.625C21.2499 31.1458 18.3957 34 14.8749 34C11.3541 34 8.49988 31.1458 8.49988 27.625C8.49988 24.1042 11.3541 21.25 14.8749 21.25C18.3957 21.25 21.2499 24.1042 21.2499 27.625Z" stroke="#223341" stroke-width="3" stroke-linecap="round" stroke-linejoin="round"/></g></svg>