<svg width="192" height="187" viewBox="0 0 192 187" fill="none" xmlns="http://www.w3.org/2000/svg"><path id="Vector" d="M71.6076 158.077H68.3598V158.072H4.2704C3.37406 158.072 2.64655 157.344 2.64655 156.447V121.75C2.64655 121.156 2.96407 120.639 3.43737 120.354L59.6536 79.7707C67.4464 74.1407 72.2426 69.676 75.0673 65.6758C77.7674 61.8525 78.6346 58.4424 78.6346 54.785C78.6346 51.1517 77.0791 48.1356 74.4584 46.0184C71.6729 43.7674 67.6805 42.4866 63.029 42.4866C56.7848 42.4866 51.2319 43.9675 45.8418 46.8478C40.3763 49.7693 35.0284 54.1546 29.2745 59.9122C28.6404 60.5466 27.6125 60.5466 26.9784 59.9122L0.470996 33.1641C-0.1269 32.5629 -0.155024 31.6099 0.383585 30.9745C8.92194 20.8557 18.433 13.2031 29.0243 8.07386C39.6317 2.93657 51.2992 0.339783 64.1333 0.339783C82.3687 0.339783 97.6979 5.80079 108.545 14.9836C119.665 24.3976 126.062 37.6922 126.062 53.0155H126.054C126.054 53.8912 126.038 54.7337 125.989 55.5932C162.12 55.6747 191.399 85.0155 191.399 121.197C191.399 157.426 162.039 186.799 125.826 186.799C103.287 186.799 83.3947 175.411 71.6056 158.076L71.6076 158.077ZM122.816 53.0115C122.815 38.6784 116.839 26.2524 106.453 17.4597C96.1806 8.76352 81.5778 3.59005 64.1344 3.59005C51.7876 3.59005 40.5893 6.07625 30.4341 10.9944C20.6568 15.7295 11.817 22.7287 3.82224 31.9416L28.136 56.4709C33.6598 51.0712 38.8971 46.89 44.3204 43.9916C50.1959 40.8509 56.2411 39.2364 63.03 39.2364C68.4282 39.2364 73.1329 40.7796 76.4892 43.492C79.8736 46.2275 81.8833 50.1131 81.8833 54.785C81.8833 59.0818 80.8714 63.079 77.7191 67.5417C74.6915 71.8285 69.6551 76.5375 61.5438 82.3986L5.89426 122.573V154.821H69.5245C63.6319 144.994 60.2556 133.493 60.2556 121.198C60.2556 86.0078 87.9587 57.2842 122.742 55.6596C122.791 54.798 122.808 53.9053 122.808 53.0115H122.816ZM122.743 55.6596C121.963 75.3823 112.204 89.1917 88.6581 104.253L64.3323 119.832H124.14V154.827H70.5283V156.454C70.879 157.002 71.2388 157.543 71.6086 158.076H127.389V116.582H75.4251L90.4136 106.98C114.739 91.4155 125.229 76.3877 125.993 55.5922H125.83C124.791 55.5922 123.768 55.6083 122.744 55.6576L122.743 55.6596Z" fill="#A70532"/></svg>