<svg width="141" height="84" viewBox="0 0 141 84" fill="none" xmlns="http://www.w3.org/2000/svg"><path d="M130.265 41.47L67.8744 56.4922L5.48389 41.47H130.265Z" fill="#A70532"/><path d="M12.3889 71.2476L11.8883 71.2901C11.4538 69.6613 10.1254 68.899 8.31991 68.899C5.36068 68.899 3.29391 70.9632 3.29391 75.2879C3.29391 79.1552 4.99077 81.5888 8.58119 81.5888C10.0388 81.5888 11.5184 81.0464 12.4109 79.9161L12.6501 80.0026C12.6501 80.6549 12.5195 81.5448 12.4534 81.8058C11.583 82.4581 9.97274 83.0445 7.90597 83.0445C2.96657 83.0445 0.0513756 80.35 0.0513756 75.3084C0.0513756 70.5497 3.01061 67.6368 7.90597 67.6368C10.212 67.6368 12.019 68.1807 12.954 68.6586C12.7793 69.201 12.5195 70.2008 12.3889 71.2446V71.2476ZM103.68 32.6138H109.718V9.76021H103.68V32.6138ZM103.727 5.91486H109.671V-0.00634649H103.727V5.91486ZM115.677 32.6138H121.411V20.0765C121.411 13.8533 123.721 13.2904 125.058 13.2904C126.805 13.2904 128.489 14.4749 128.489 18.7263V32.6138H134.224V16.841C134.224 10.5592 130.473 9.23391 127.731 9.23391C125.274 9.23391 122.967 10.6515 121.411 13.1951V9.76021H115.677V32.6138ZM33.7332 32.6138H39.4667V9.76021H33.7332V22.7842C33.7332 26.7982 32.5516 29.0837 29.9578 29.0837C27.4492 29.0837 26.3557 27.2101 26.3557 24.3543V9.76021H20.6192V24.9862C20.6192 31.4469 23.8045 33.0404 27.3714 33.0404C30.385 33.0404 32.4562 31.2959 33.7347 29.1291V32.6124L33.7332 32.6138ZM99.9255 9.33066C99.4529 9.28082 99.2356 9.28082 98.9332 9.28082C96.2602 9.28082 94.4504 11.0943 92.6816 15.5319V9.75874H86.9481V32.6124H92.6816V20.399C92.6816 17.725 94.6647 15.5304 97.1234 15.5304C97.9424 15.5304 98.6338 15.6521 99.6672 16.2473L99.9255 9.3292V9.33066ZM61.2691 10.9946C59.2419 9.6224 56.8375 9.23391 54.831 9.23391C48.2637 9.23391 43.7984 14.1465 43.7984 21.5909C43.7984 28.6043 48.1448 33.1372 54.4434 33.1372C56.7495 33.1372 58.3612 32.9188 60.3017 31.6301L60.905 28.6248C59.2243 29.8519 58.0353 30.082 56.4251 30.082C52.566 30.082 50.3084 27.0298 50.3084 21.1628C50.3084 15.2445 52.2945 11.8932 55.4211 11.7554C58.0456 11.6411 59.2845 12.9121 60.3193 13.8709L61.2691 10.9946ZM82.634 21.2581C82.6765 20.3536 82.6765 20.1132 82.6765 19.54C82.6765 12.9077 79.0758 9.13862 73.4275 9.13862C67.349 9.13862 63.1861 13.673 63.1861 20.9239C63.1861 28.6527 67.4341 33.2339 74.0308 33.2339C76.532 33.2339 78.452 32.7062 80.9092 31.0833L81.3393 27.9842C79.4002 29.5587 77.6946 30.1304 75.9273 30.1304C71.7732 30.1304 69.4818 26.7014 69.4818 21.2566H82.634V21.2581ZM69.4818 18.8451C69.6374 14.3752 70.935 11.1925 73.4715 11.1925C75.7071 11.1925 76.8124 14.2521 76.9005 18.8451H69.4818ZM0.00146787 32.6138H17.0215V29.4165H6.76837V17.0595H15.2879V13.8636H6.76837V3.17636H16.7279V-0.0078125H0V32.6138H0.00146787ZM135.887 1.89214H136.709C137.127 1.89214 137.584 1.97423 137.584 2.50346C137.584 3.13238 137.082 3.15877 136.534 3.15877H135.888V1.8936L135.887 1.89214ZM136.917 -0.00634649H136.279C134.553 0.150516 133.16 1.55642 133.16 3.36841C133.16 5.32553 134.729 6.79154 136.599 6.79154C138.46 6.79154 140.019 5.32553 140.019 3.36841C140.019 1.55642 138.633 0.14905 136.917 -0.00634649ZM135.266 5.37244H135.887V3.66014H136.543L137.628 5.37244H138.294L137.154 3.6147C137.747 3.55019 138.2 3.24966 138.2 2.53132C138.2 1.76606 137.754 1.39223 136.807 1.39223H135.265V5.37244H135.266ZM133.779 3.36987C133.779 1.7382 135.002 0.481835 136.597 0.481835C138.175 0.481835 139.397 1.7382 139.397 3.36987C139.397 5.03526 138.175 6.29309 136.597 6.29309C135 6.29309 133.779 5.03526 133.779 3.36987ZM136.308 67.9021C136.178 69.1629 136.134 71.4455 136.134 74.4654C136.134 77.0955 136.091 80.3764 136.308 82.7235C135.677 82.6795 135.329 82.6795 134.72 82.6795C134.133 82.6795 133.588 82.6795 133.001 82.7235C133.196 80.2679 133.154 77.8768 133.154 75.3773C133.154 74.4215 133.132 73.2692 133.089 72.4878C130.347 75.7907 127.715 79.2681 125.17 82.7235H123.407L123.602 75.3773C123.668 72.5743 123.56 70.0308 123.385 67.9021L125.082 67.9461L126.713 67.9021C126.518 70.1187 126.54 72.5963 126.54 75.3568C126.54 77.2259 126.54 77.7918 126.54 78.2258C129.412 74.9874 132.175 71.532 134.591 67.9461L136.135 67.9021H136.31H136.308ZM112.376 75.5518C112.267 75.3993 112.116 75.3773 112.006 75.3773V76.3346C112.006 78.2683 112.071 81.0273 112.159 82.7675C111.636 82.7455 111.114 82.7235 110.593 82.7235C110.07 82.7235 109.569 82.7455 108.982 82.7675C109.091 81.0288 109.157 78.1598 109.157 76.2041V74.0315C109.157 72.0759 109.091 69.6408 108.982 67.9036C109.569 67.9256 110.07 67.9476 110.593 67.9476C111.115 67.9476 111.636 67.9256 112.159 67.9036C112.072 69.6423 112.006 71.8809 112.006 73.8365V74.5314C112.115 74.5314 112.311 74.4889 112.441 74.4229C114.029 72.8792 116.467 69.9252 117.837 67.9476C118.402 67.9476 119.577 67.9256 120.143 67.9036L120.207 67.9696C118.466 69.6863 116.204 72.2063 114.703 73.923C116.072 76.1836 118.946 80.2899 120.73 82.681L120.687 82.7469C120.056 82.7249 119.469 82.7249 119.077 82.7249C118.554 82.7249 117.467 82.7689 116.988 82.8114C115.617 80.4218 113.79 77.6394 112.375 75.5532L112.376 75.5518ZM94.1671 69.0764L93.6225 67.9241L95.5586 67.9901L97.2335 67.9241L97.6694 69.0764L101.435 77.6174L101.869 76.5956L104.828 69.1424L105.242 67.9256L106.33 67.9915L107.375 67.9256L106.766 69.1644L102.239 79.2696L100.389 84.0077L99.2356 83.8772L98.0613 83.9857L99.7156 80.7913L99.5409 80.4438L94.1671 69.0779V69.0764ZM85.1822 70.7491C84.529 72.2269 83.4853 74.8789 82.9408 76.3771C83.4853 76.3991 84.2237 76.3991 84.8343 76.3991C85.5081 76.3991 86.4226 76.3991 87.0317 76.3771C86.6398 75.0944 85.8134 72.5098 85.1822 70.7491ZM92.275 82.766C91.5352 82.744 90.8599 82.722 90.3594 82.722C90.0541 82.722 89.5315 82.744 88.9018 82.766C88.5965 81.5052 87.9668 79.3531 87.4002 77.5939C86.7044 77.5719 85.6813 77.5719 84.8754 77.5719C84.0696 77.5719 83.1345 77.5719 82.4828 77.5939C81.8736 79.1801 81.1118 81.5272 80.7859 82.766C80.5672 82.744 80.1768 82.722 79.9155 82.722C79.5456 82.722 79.1757 82.744 78.8278 82.766L78.7632 82.7015C81.0692 77.6159 83.136 72.6828 84.987 67.8801H87.1624C88.7066 72.5963 91.2753 80.0275 92.319 82.7015L92.2764 82.766H92.275ZM75.6322 82.722C75.1317 82.722 74.6091 82.744 74.0219 82.766C74.1306 81.0273 74.1952 78.3753 74.1952 76.4196V75.4418C73.1295 75.4198 71.9111 75.4198 70.7354 75.4198C69.473 75.4198 68.516 75.4198 67.6675 75.4418V76.4196C67.6675 78.3533 67.7116 81.0258 67.8202 82.766C67.2551 82.744 66.7325 82.722 66.2099 82.722C65.6874 82.722 65.1868 82.744 64.5997 82.766C64.7083 81.0273 64.7743 78.1583 64.7743 76.2027V74.03C64.7743 72.0744 64.7083 69.6393 64.5997 67.9021C65.1868 67.9241 65.6874 67.9461 66.2099 67.9461C66.7325 67.9461 67.2551 67.9241 67.8202 67.9021C67.7116 69.6408 67.6675 71.271 67.6675 73.2267V73.9875C68.6246 74.0095 69.5816 74.0095 70.7354 74.0095C71.8451 74.0095 73.3687 74.0095 74.1952 73.9875V73.2487C74.1952 71.293 74.1306 69.6408 74.0219 67.9021C74.6091 67.9241 75.1317 67.9461 75.6322 67.9461C76.1548 67.9461 76.6773 67.9241 77.2425 67.9021C77.1559 69.6408 77.0913 72.0744 77.0913 74.03V76.2027C77.0913 78.1583 77.1559 81.0273 77.2425 82.766C76.6773 82.744 76.1548 82.722 75.6322 82.722ZM51.2215 70.7477C50.5683 72.2254 49.5246 74.8774 48.98 76.3757C49.5231 76.3977 50.2644 76.3976 50.8736 76.3976C51.5473 76.3976 52.4618 76.3977 53.071 76.3757C52.6791 75.0929 51.8526 72.5083 51.2215 70.7477ZM58.3157 82.7645C57.5759 82.7425 56.9007 82.7205 56.4001 82.7205C56.0963 82.7205 55.5737 82.7425 54.9425 82.7645C54.6387 81.5038 54.0075 79.3517 53.4409 77.5924C52.7451 77.5705 51.722 77.5704 50.9161 77.5704C50.1103 77.5704 49.1752 77.5705 48.522 77.5924C47.9129 79.1787 47.1511 81.5257 46.8252 82.7645C46.6079 82.7425 46.216 82.7205 45.9547 82.7205C45.5848 82.7205 45.2149 82.7425 44.867 82.7645L44.8025 82.7C47.1085 77.6144 49.1767 72.6813 51.0262 67.8787H53.2016C54.7473 72.5948 57.3146 80.026 58.3583 82.7L58.3157 82.7645ZM38.953 67.8787C40.7159 72.9203 42.586 77.8314 44.5015 82.7865C43.9144 82.722 43.3052 82.7 42.674 82.7C42.0649 82.7 41.303 82.722 40.8685 82.7865C39.8454 79.1801 38.3878 75.5928 37.1695 71.9644C35.7545 75.5723 34.3835 79.1801 33.2752 82.7865C33.058 82.7425 32.622 82.7 32.2962 82.7C31.9908 82.7 31.6224 82.722 31.3611 82.7865C33.3633 77.8314 35.4081 72.9862 37.149 67.8787C37.3662 67.9446 37.7156 67.9652 38.0194 67.9652C38.3453 67.9652 38.6506 67.9432 38.9544 67.8787H38.953ZM28.8599 67.9007C28.7292 69.1614 28.6852 71.444 28.6852 74.464C28.6852 77.094 28.6412 80.3749 28.8599 82.722C28.2287 82.678 27.8808 82.678 27.2716 82.678C26.6845 82.678 26.1399 82.678 25.5528 82.722C25.748 80.2664 25.7054 77.8754 25.7054 75.3758C25.7054 74.42 25.6834 73.2677 25.6408 72.4863C22.8988 75.7893 20.2655 79.2666 17.7202 82.722H15.9573L16.1525 75.3758C16.2185 72.5728 16.1084 70.0293 15.9352 67.9007L17.6321 67.9446L19.2644 67.9007C19.0692 70.1173 19.0897 72.5948 19.0897 75.3553C19.0897 77.2245 19.0897 77.7904 19.0897 78.2243C21.9623 74.9859 24.7249 71.5305 27.141 67.9446L28.6867 67.9007H28.8613H28.8599Z" fill="#223341"/></svg>