<svg width="588" height="95" viewBox="0 0 588 95" fill="none" xmlns="http://www.w3.org/2000/svg"><path fill-rule="evenodd" clip-rule="evenodd" d="M207.916 43.1087L222.562 22.7311H237.527L220.015 45.3375C225.746 51.3871 234.661 65.3967 238.164 73.0383H224.472C221.925 67.9439 215.557 55.8447 211.1 52.9791C210.144 52.3423 209.508 52.0239 208.871 52.3423C208.234 52.6607 207.916 53.6159 207.916 56.1632V73.0383H195.498V28.7807C195.498 27.1887 196.135 25.5967 197.408 24.3231C198.682 23.0495 200.274 22.4127 201.866 22.4127H207.916V43.1087Z" fill="#fff"/><path fill-rule="evenodd" clip-rule="evenodd" d="M85.6493 33.8751H68.4556V73.0383H56.0381V28.7807C56.0381 27.1887 56.6748 25.5967 57.9484 24.3231C59.222 23.0495 60.8141 22.4127 62.4061 22.4127H98.3853V73.0383H85.6493V33.8751Z" fill="#fff"/><path fill-rule="evenodd" clip-rule="evenodd" d="M130.544 33.5567V73.0383H118.126V33.5567H103.798V28.7807C103.798 27.1887 104.435 25.5967 105.709 24.3231C106.982 23.0495 108.574 22.4127 110.166 22.4127H144.872V27.1887C144.872 28.7807 144.235 30.3727 142.962 31.6463C141.688 32.9199 140.096 33.5567 138.504 33.5567H130.544Z" fill="#fff"/><path fill-rule="evenodd" clip-rule="evenodd" d="M162.703 33.238V41.198H181.488V45.6556C181.488 47.2476 180.852 48.8395 179.578 50.1131C178.304 51.3867 176.712 52.0236 175.12 52.0236H162.703V61.894H187.856V73.3564H150.285V29.0988C150.285 27.5068 150.922 25.9147 152.195 24.6411C153.469 23.3675 155.061 22.7308 156.653 22.7308H188.175V27.5068C188.175 29.0988 187.538 30.6908 186.264 31.9644C184.991 33.238 183.399 33.8748 181.807 33.8748H162.703V33.238Z" fill="#fff"/><path fill-rule="evenodd" clip-rule="evenodd" d="M26.4273 36.1038L21.9697 48.2031L20.0593 53.2974L17.8304 59.6654C19.7408 55.5262 24.5169 52.979 29.9297 53.2974H32.4768L26.4273 36.1038ZM36.2977 63.1678H16.8753L13.3728 73.0382H0L18.1488 26.2334C19.104 23.6862 21.3328 22.4126 24.1984 22.4126H33.432L53.4912 73.0382H40.1184L36.2977 63.1678Z" fill="#fff"/><path fill-rule="evenodd" clip-rule="evenodd" d="M267.456 36.1036L262.998 48.2028L261.088 53.2971L258.859 59.6651C260.77 55.5259 265.546 52.9787 270.958 53.2971H273.506L267.456 36.1036ZM277.008 63.1676H257.586L254.083 73.3564H240.71L258.859 26.5515C259.814 24.0043 262.043 22.7308 264.909 22.7308H274.142L294.202 73.3564H280.829L277.008 63.1676Z" fill="#fff"/><path fill-rule="evenodd" clip-rule="evenodd" d="M560.322 36.2298L556.082 48.5908L554.451 53.4701L552.168 59.9758C554.125 55.7471 558.691 53.1448 564.237 53.7954H566.846L560.322 36.2298ZM408.32 62.9034H420.389C422.346 62.9034 424.956 62.5781 426.587 61.6023C427.891 60.6264 428.218 58.9999 428.218 57.3735C428.218 55.747 427.891 54.1206 426.587 53.1448C424.956 52.1689 422.02 51.8436 420.389 51.8436H408.32V62.9034ZM425.282 40.7839C426.26 40.1333 426.913 38.8322 426.913 37.531C426.913 36.2299 426.587 34.9287 425.282 34.2781C423.977 33.3023 421.042 33.3022 419.737 33.3022H408.32V35.254V48.2655C409.951 43.0609 414.192 42.4103 418.106 42.085C420.715 41.7597 423.651 41.7597 425.282 40.7839ZM481.386 42.085L460.836 73.6379H448.115V30.6999V28.7482V28.4229C448.115 26.7965 448.767 25.4954 450.072 24.5195C451.377 23.2183 453.008 22.893 454.639 22.5677H460.836V54.1206L477.145 28.7482C481.06 22.893 481.712 22.5677 488.562 22.5677H494.107V73.3127H481.386V42.085ZM513.352 33.3022H497.369V28.7482C497.369 27.1218 498.021 25.4954 499.326 24.5195C500.631 23.2183 502.262 22.8931 503.892 22.8931H542.056V27.4471C542.056 29.0735 541.404 30.6999 540.099 31.6758C538.794 32.9769 537.163 33.3022 535.532 33.3022H526.073V73.6379H513.352V33.3022ZM570.108 63.554H550.537L547.275 73.6379H533.575L551.842 26.7965C552.82 24.1941 555.103 22.8931 558.039 22.8931H567.498L587.722 73.6379H574.022L570.108 63.554ZM434.415 46.3137C436.372 47.2896 438.003 48.5908 439.308 50.2172C440.939 52.4942 441.591 55.0965 441.591 58.0241C441.591 62.9034 439.96 66.8069 436.372 69.7345C432.132 72.9874 426.587 73.6379 421.368 73.6379H395.925V28.7482C395.925 27.1218 396.578 25.4954 397.883 24.5195C399.187 23.2183 400.818 22.8931 402.449 22.8931H422.02C426.587 22.8931 431.479 23.5436 435.067 26.1459C438.329 28.7482 439.634 32.001 439.634 36.2298C439.634 38.5068 438.982 41.1091 437.677 43.0608C437.025 44.362 435.72 45.3379 434.415 46.3137Z" fill="#fff"/><path fill-rule="evenodd" clip-rule="evenodd" d="M342.918 0.761993C368.708 0.761993 389.723 21.7764 389.723 47.5668C389.723 73.3572 368.708 94.3717 342.918 94.3717C317.127 94.3717 296.113 73.3572 296.113 47.5668C296.113 21.7764 317.127 0.761993 342.918 0.761993Z" fill="#fff"/><path fill-rule="evenodd" clip-rule="evenodd" d="M319.037 60.9391C318.081 51.7055 316.171 52.0238 312.35 44.0638C309.485 37.6958 307.574 31.3278 309.166 22.4126C303.117 30.3726 300.569 39.6063 300.569 48.2031C300.569 67.3071 315.216 85.4558 334.957 88.6398C327.315 83.5454 320.31 72.4015 319.037 60.9391Z" fill="#30B648"/><path fill-rule="evenodd" clip-rule="evenodd" d="M346.737 57.1172C379.214 33.5555 353.423 7.7651 352.786 7.1283C355.334 28.7795 336.866 35.1475 331.135 41.1972C322.857 49.794 321.265 56.4804 323.494 65.714C325.723 75.5844 334.319 87.6836 344.826 89.594C333.682 85.4548 329.862 69.2164 346.737 57.1172Z" fill="#30B648"/><path fill-rule="evenodd" clip-rule="evenodd" d="M358.518 8.72101C363.931 15.089 368.07 25.2778 366.159 35.785C362.339 56.1626 342.279 59.0282 339.414 72.401C337.503 80.6794 342.598 87.6843 351.194 87.6843C369.025 87.6843 385.582 68.5803 385.263 47.5659C384.627 31.0091 375.393 15.4074 358.518 8.72101Z" fill="#30A8FF"/><path fill-rule="evenodd" clip-rule="evenodd" d="M336.23 32.919C353.423 21.775 349.284 6.17343 349.284 6.17343C347.692 5.85503 345.782 5.85501 343.871 5.85501C332.727 5.85501 315.852 10.6311 312.986 22.4119C309.165 38.0135 320.628 50.431 320.628 50.431C320.628 50.431 323.175 41.5158 336.23 32.919Z" fill="#FF6F20"/></svg>